<?xml version="1.0" encoding="UTF-8"?> <svg xmlns="http://www.w3.org/2000/svg" width="354" height="354" viewBox="0 0 354 354" fill="none"><path d="M176.975 7.48697C83.5192 7.48697 7.48745 83.519 7.48745 176.974C7.48745 270.43 83.5192 346.462 176.975 346.462C270.43 346.462 346.462 270.43 346.462 176.974C346.462 83.519 270.43 7.48697 176.975 7.48697ZM176.975 347.823C82.7679 347.823 6.12598 271.181 6.12598 176.974C6.12598 82.7684 82.7679 6.12573 176.975 6.12573C271.182 6.12573 347.824 82.7684 347.824 176.974C347.824 271.181 271.182 347.823 176.975 347.823Z" fill="white"></path><path d="M183.781 6.80667C183.781 10.5658 180.733 13.6133 176.974 13.6133C173.215 13.6133 170.167 10.5658 170.167 6.80667C170.167 3.04759 173.215 0 176.974 0C180.733 0 183.781 3.04759 183.781 6.80667Z" fill="white"></path><path d="M183.781 347.143C183.781 350.901 180.733 353.949 176.974 353.949C173.215 353.949 170.167 350.901 170.167 347.143C170.167 343.384 173.215 340.336 176.974 340.336C180.733 340.336 183.781 343.384 183.781 347.143Z" fill="white"></path><path d="M33.0078 85.9954C36.2631 87.875 37.3785 92.038 35.499 95.2935C33.6195 98.5495 29.4564 99.665 26.2011 97.7847C22.9459 95.9052 21.8304 91.7428 23.7097 88.4866C25.5893 85.2313 29.7526 84.1159 33.0078 85.9954Z" fill="white"></path><path d="M327.747 256.164C331.003 258.043 332.118 262.207 330.239 265.462C328.359 268.718 324.196 269.833 320.941 267.953C317.685 266.074 316.57 261.911 318.449 258.655C320.329 255.4 324.492 254.284 327.747 256.164Z" fill="white"></path><path d="M26.2011 256.164C29.4564 254.284 33.6195 255.4 35.499 258.655C37.3785 261.911 36.2631 266.074 33.0078 267.953C29.7526 269.833 25.5893 268.718 23.7097 265.462C21.8304 262.207 22.9459 258.043 26.2011 256.164Z" fill="white"></path><path d="M320.941 85.9954C324.196 84.1159 328.359 85.2313 330.239 88.4866C332.118 91.7428 331.003 95.9052 327.747 97.7847C324.492 99.665 320.329 98.5495 318.449 95.2935C316.57 92.038 317.685 87.875 320.941 85.9954Z" fill="white"></path><path d="M97.7838 26.2013C99.6634 29.4565 98.5479 33.6196 95.2926 35.4991C92.0364 37.3787 87.8741 36.2632 85.9945 33.0079C84.1143 29.7527 85.2298 25.5894 88.486 23.7098C91.7412 21.8305 95.9045 22.946 97.7838 26.2013Z" fill="white"></path><path d="M267.954 320.941C269.833 324.196 268.718 328.359 265.462 330.239C262.206 332.118 258.044 331.003 256.164 327.747C254.284 324.492 255.399 320.329 258.655 318.45C261.911 316.57 266.074 317.686 267.954 320.941Z" fill="white"></path><path d="M6.80667 170.168C10.5657 170.168 13.6133 173.215 13.6133 176.974C13.6133 180.733 10.5657 183.781 6.80667 183.781C3.04759 183.781 0 180.733 0 176.974C0 173.215 3.04759 170.168 6.80667 170.168Z" fill="white"></path><path d="M347.144 170.168C350.903 170.168 353.951 173.215 353.951 176.974C353.951 180.733 350.903 183.781 347.144 183.781C343.385 183.781 340.337 180.733 340.337 176.974C340.337 173.215 343.385 170.168 347.144 170.168Z" fill="white"></path><path d="M85.9965 320.941C87.876 317.686 92.0391 316.57 95.2946 318.45C98.5506 320.329 99.666 324.492 97.7858 327.747C95.9062 331.003 91.7439 332.118 88.4877 330.239C85.2324 328.359 84.117 324.196 85.9965 320.941Z" fill="white"></path><path d="M256.164 26.2013C258.043 22.946 262.206 21.8305 265.462 23.7098C268.718 25.5894 269.833 29.7527 267.953 33.0079C266.073 36.2632 261.911 37.3787 258.655 35.4991C255.4 33.6196 254.284 29.4565 256.164 26.2013Z" fill="white"></path></svg> 