<?xml version="1.0" encoding="UTF-8"?> <svg xmlns="http://www.w3.org/2000/svg" width="405" height="405" viewBox="0 0 405 405" fill="none"> <path d="M202.5 7.48722C150.41 7.48722 101.438 27.7719 64.6054 64.6049C27.7724 101.438 7.48746 150.41 7.48746 202.5C7.48746 254.59 27.7724 303.562 64.6054 340.395C101.438 377.228 150.41 397.512 202.5 397.512C254.59 397.512 303.561 377.228 340.394 340.395C377.228 303.562 397.513 254.59 397.513 202.5C397.513 150.41 377.228 101.438 340.394 64.6049C303.561 27.7719 254.59 7.48722 202.5 7.48722ZM202.5 398.874C150.047 398.874 100.733 378.448 63.6431 341.357C26.5532 304.267 6.12622 254.953 6.12622 202.5C6.12622 150.046 26.5532 100.732 63.6431 63.6426C100.733 26.5527 150.047 6.12573 202.5 6.12573C254.953 6.12573 304.267 26.5527 341.357 63.6426C378.448 100.732 398.874 150.046 398.874 202.5C398.874 254.953 378.448 304.267 341.357 341.357C304.267 378.448 254.953 398.874 202.5 398.874Z" fill="#898989"></path> <path d="M209.306 6.80666C209.306 10.5657 206.258 13.6133 202.499 13.6133C198.74 13.6133 195.693 10.5657 195.693 6.80666C195.693 3.04758 198.74 0 202.499 0C206.258 0 209.306 3.04758 209.306 6.80666Z" fill="#898989"></path> <path d="M209.306 398.193C209.306 401.953 206.258 405 202.499 405C198.74 405 195.693 401.953 195.693 398.193C195.693 394.434 198.74 391.387 202.499 391.387C206.258 391.387 209.306 394.434 209.306 398.193Z" fill="#898989"></path> <path d="M68.937 59.3106C71.5951 61.9687 71.5951 66.2791 68.937 68.9372C66.279 71.595 61.9685 71.595 59.3107 68.9372C56.6526 66.2791 56.6526 61.9687 59.3107 59.3106C61.9685 56.6528 66.279 56.6528 68.937 59.3106Z" fill="#898989"></path> <path d="M345.688 336.063C348.346 338.721 348.346 343.032 345.688 345.69C343.03 348.348 338.72 348.348 336.061 345.69C333.404 343.032 333.404 338.721 336.061 336.063C338.72 333.405 343.03 333.405 345.688 336.063Z" fill="#898989"></path> <path d="M6.80668 195.693C10.5658 195.693 13.6133 198.741 13.6133 202.5C13.6133 206.259 10.5658 209.306 6.80668 209.306C3.0476 209.306 0 206.259 0 202.5C0 198.741 3.0476 195.693 6.80668 195.693Z" fill="#898989"></path> <path d="M398.193 195.693C401.952 195.693 405 198.741 405 202.5C405 206.259 401.952 209.306 398.193 209.306C394.434 209.306 391.386 206.259 391.386 202.5C391.386 198.741 394.434 195.693 398.193 195.693Z" fill="#898989"></path> <path d="M59.3105 336.063C61.9686 333.405 66.279 333.405 68.9371 336.063C71.5949 338.721 71.5949 343.032 68.9371 345.69C66.279 348.348 61.9686 348.348 59.3105 345.69C56.6527 343.032 56.6527 338.721 59.3105 336.063Z" fill="#898989"></path> <path d="M336.061 59.3106C338.72 56.6528 343.03 56.6528 345.688 59.3106C348.346 61.9687 348.346 66.2791 345.688 68.9372C343.03 71.595 338.72 71.595 336.061 68.9372C333.404 66.2791 333.404 61.9687 336.061 59.3106Z" fill="#898989"></path> </svg> 