<?xml version="1.0" encoding="UTF-8"?> <svg xmlns="http://www.w3.org/2000/svg" width="150" height="395" viewBox="0 0 150 395" fill="none"> <path d="M1.52983 146.136L74.8401 289.286L148.151 146.136L74.8401 2.98633L1.52983 146.136ZM74.8401 292.272L0 146.136L0.159183 145.826L74.8401 0L149.68 146.136L149.522 146.447L74.8401 292.272Z" fill="#898989"></path> <path d="M14.6009 146.136L74.8388 263.761L135.077 146.136L74.8388 28.512L14.6009 146.136ZM74.8388 266.747L13.071 146.136L13.2302 145.826L74.8388 25.5254L136.606 146.136L136.448 146.447L74.8388 266.747Z" fill="#898989"></path> <path d="M27.6746 146.136L74.8409 238.235L122.007 146.136L74.8409 54.0365L27.6746 146.136ZM74.8409 241.221L26.1448 146.136L26.3039 145.825L74.8409 51.0502L123.536 146.136L123.377 146.446L74.8409 241.221Z" fill="#898989"></path> <path d="M27.8701 247.772L75.0364 339.871L122.203 247.772L75.0364 155.673L27.8701 247.772ZM75.0364 342.858L26.3403 247.772L26.4995 247.463L75.0364 152.687L123.732 247.772L75.0364 342.858Z" fill="#898989"></path> <path d="M15.7495 197.187L74.8403 312.571L133.931 197.187L74.8403 81.8026L15.7495 197.187ZM74.8403 320.038L11.9258 197.187L74.8403 74.3356L137.756 197.187L74.8403 320.038Z" fill="#898989"></path> <path d="M1.52983 248.237L74.8401 391.387L148.151 248.237L74.8401 105.088L1.52983 248.237ZM74.8401 394.373L0 248.237L0.159183 247.928L74.8401 102.101L149.68 248.237L74.8401 394.373Z" fill="#898989"></path> <path d="M14.6009 248.237L74.8388 365.861L135.077 248.237L74.8388 130.613L14.6009 248.237ZM74.8388 368.848L13.071 248.237L13.2302 247.927L74.8388 127.626L136.606 248.237L74.8388 368.848Z" fill="#898989"></path> <path d="M66.1255 197.186L74.8397 180.169L83.5548 197.186L74.8397 214.203L66.1255 197.186Z" fill="#898989"></path> <path d="M81.6463 129.12C81.6463 132.878 78.5987 135.926 74.8396 135.926C71.0805 135.926 68.033 132.878 68.033 129.12C68.033 125.36 71.0805 122.313 74.8396 122.313C78.5987 122.313 81.6463 125.36 81.6463 129.12Z" fill="#898989"></path> <path d="M81.6463 265.254C81.6463 269.013 78.5987 272.06 74.8396 272.06C71.0805 272.06 68.033 269.013 68.033 265.254C68.033 261.495 71.0805 258.447 74.8396 258.447C78.5987 258.447 81.6463 261.495 81.6463 265.254Z" fill="#898989"></path> </svg> 